<svg width="14" height="14" viewBox="0 0 14 14" fill="none" xmlns="http://www.w3.org/2000/svg">
<path d="M8.16671 11.6667L7.96021 11.8732L8.16671 12.0792L8.37321 11.8732L8.16671 11.6667ZM3.50004 2.04175C3.42269 2.04175 3.3485 2.07248 3.2938 2.12718C3.2391 2.18187 3.20837 2.25606 3.20837 2.33341C3.20837 2.41077 3.2391 2.48496 3.2938 2.53965C3.3485 2.59435 3.42269 2.62508 3.50004 2.62508V2.04175ZM5.04354 8.95658L7.96021 11.8732L8.37321 11.4602L5.45654 8.54358L5.04354 8.95658ZM8.37321 11.8732L11.2899 8.95658L10.8769 8.54358L7.96021 11.4602L8.37321 11.8732ZM8.45837 11.6667V5.83341H7.87504V11.6667H8.45837ZM4.66671 2.04175H3.50004V2.62508H4.66671V2.04175ZM8.45837 5.83341C8.45837 4.8278 8.0589 3.86338 7.34782 3.1523C6.63675 2.44123 5.67232 2.04175 4.66671 2.04175V2.62508C5.51761 2.62508 6.33366 2.9631 6.93534 3.56478C7.53702 4.16646 7.87504 4.98251 7.87504 5.83341H8.45837Z" fill="white"/>
</svg>
